<?xml version="1.0" encoding="UTF-8" standalone="no"?>
<!DOCTYPE svg PUBLIC "-//W3C//DTD SVG 1.1//EN"
 "http://www.w3.org/Graphics/SVG/1.1/DTD/svg11.dtd">
<!-- Generated by graphviz version 2.48.0 (20210717.2242)
 -->
<!-- Title: snakemake_dag Pages: 1 -->
<svg width="632pt" height="548pt"
 viewBox="0.00 0.00 632.00 548.00" xmlns="http://www.w3.org/2000/svg" xmlns:xlink="http://www.w3.org/1999/xlink">
<g id="graph0" class="graph" transform="scale(1 1) rotate(0) translate(4 544)">
<title>snakemake_dag</title>
<polygon fill="white" stroke="transparent" points="-4,4 -4,-544 628,-544 628,4 -4,4"/>
<!-- 0 -->
<g id="node1" class="node">
<title>0</title>
<path fill="none" stroke="#d8b456" stroke-width="2" d="M257,-36C257,-36 227,-36 227,-36 221,-36 215,-30 215,-24 215,-24 215,-12 215,-12 215,-6 221,0 227,0 227,0 257,0 257,0 263,0 269,-6 269,-12 269,-12 269,-24 269,-24 269,-30 263,-36 257,-36"/>
<text text-anchor="middle" x="242" y="-15.5" font-family="sans" font-size="10.00">all</text>
</g>
<!-- 1 -->
<g id="node2" class="node">
<title>1</title>
<path fill="none" stroke="#70d856" stroke-width="2" d="M103.5,-396C103.5,-396 40.5,-396 40.5,-396 34.5,-396 28.5,-390 28.5,-384 28.5,-384 28.5,-372 28.5,-372 28.5,-366 34.5,-360 40.5,-360 40.5,-360 103.5,-360 103.5,-360 109.5,-360 115.5,-366 115.5,-372 115.5,-372 115.5,-384 115.5,-384 115.5,-390 109.5,-396 103.5,-396"/>
<text text-anchor="middle" x="72" y="-375.5" font-family="sans" font-size="10.00">create_singles</text>
</g>
<!-- 1&#45;&gt;0 -->
<g id="edge5" class="edge">
<title>1&#45;&gt;0</title>
<path fill="none" stroke="grey" stroke-width="2" d="M75.44,-359.59C80.41,-332.9 89,-280.19 89,-235 89,-235 89,-235 89,-161 89,-117.45 99.36,-102.95 130,-72 150.66,-51.13 181.13,-37.45 205.07,-29.22"/>
<polygon fill="grey" stroke="grey" stroke-width="2" points="206.46,-32.45 214.89,-26.03 204.3,-25.79 206.46,-32.45"/>
</g>
<!-- 2 -->
<g id="node3" class="node">
<title>2</title>
<path fill="none" stroke="#ced856" stroke-width="2" d="M138,-540C138,-540 80,-540 80,-540 74,-540 68,-534 68,-528 68,-528 68,-516 68,-516 68,-510 74,-504 80,-504 80,-504 138,-504 138,-504 144,-504 150,-510 150,-516 150,-516 150,-528 150,-528 150,-534 144,-540 138,-540"/>
<text text-anchor="middle" x="109" y="-519.5" font-family="sans" font-size="10.00">create_RGset</text>
</g>
<!-- 2&#45;&gt;0 -->
<g id="edge3" class="edge">
<title>2&#45;&gt;0</title>
<path fill="none" stroke="grey" stroke-width="2" d="M83.44,-503.89C51.23,-480.04 0,-433.54 0,-379 0,-379 0,-379 0,-161 0,-67.37 136.43,-34.29 204.42,-23.61"/>
<polygon fill="grey" stroke="grey" stroke-width="2" points="205.33,-27.02 214.71,-22.09 204.3,-20.09 205.33,-27.02"/>
</g>
<!-- 2&#45;&gt;1 -->
<g id="edge11" class="edge">
<title>2&#45;&gt;1</title>
<path fill="none" stroke="grey" stroke-width="2" d="M104.54,-503.87C98.2,-479.56 86.54,-434.82 79.04,-406.01"/>
<polygon fill="grey" stroke="grey" stroke-width="2" points="82.39,-404.98 76.48,-396.19 75.61,-406.75 82.39,-404.98"/>
</g>
<!-- 3 -->
<g id="node4" class="node">
<title>3</title>
<path fill="none" stroke="#9fd856" stroke-width="2" d="M192,-468C192,-468 134,-468 134,-468 128,-468 122,-462 122,-456 122,-456 122,-444 122,-444 122,-438 128,-432 134,-432 134,-432 192,-432 192,-432 198,-432 204,-438 204,-444 204,-444 204,-456 204,-456 204,-462 198,-468 192,-468"/>
<text text-anchor="middle" x="163" y="-447.5" font-family="sans" font-size="10.00">create_Msets</text>
</g>
<!-- 2&#45;&gt;3 -->
<g id="edge13" class="edge">
<title>2&#45;&gt;3</title>
<path fill="none" stroke="grey" stroke-width="2" d="M122.35,-503.7C128.76,-495.39 136.56,-485.28 143.61,-476.14"/>
<polygon fill="grey" stroke="grey" stroke-width="2" points="146.47,-478.16 149.81,-468.1 140.93,-473.88 146.47,-478.16"/>
</g>
<!-- 6 -->
<g id="node7" class="node">
<title>6</title>
<path fill="none" stroke="#56d89a" stroke-width="2" d="M436.5,-252C436.5,-252 395.5,-252 395.5,-252 389.5,-252 383.5,-246 383.5,-240 383.5,-240 383.5,-228 383.5,-228 383.5,-222 389.5,-216 395.5,-216 395.5,-216 436.5,-216 436.5,-216 442.5,-216 448.5,-222 448.5,-228 448.5,-228 448.5,-240 448.5,-240 448.5,-246 442.5,-252 436.5,-252"/>
<text text-anchor="middle" x="416" y="-231.5" font-family="sans" font-size="10.00">check_QC</text>
</g>
<!-- 2&#45;&gt;6 -->
<g id="edge16" class="edge">
<title>2&#45;&gt;6</title>
<path fill="none" stroke="grey" stroke-width="2" d="M150.16,-507.56C202.77,-488.86 294.6,-450.99 358,-396 387.43,-370.47 394.7,-360.62 408,-324 415.18,-304.22 417,-280.42 417.12,-262.41"/>
<polygon fill="grey" stroke="grey" stroke-width="2" points="420.62,-262.26 417.02,-252.29 413.62,-262.33 420.62,-262.26"/>
</g>
<!-- 3&#45;&gt;0 -->
<g id="edge4" class="edge">
<title>3&#45;&gt;0</title>
<path fill="none" stroke="grey" stroke-width="2" d="M159.16,-431.61C153.6,-404.94 144,-352.27 144,-307 144,-307 144,-307 144,-161 144,-112.54 183.14,-68.61 211.95,-42.85"/>
<polygon fill="grey" stroke="grey" stroke-width="2" points="214.5,-45.27 219.76,-36.08 209.91,-39.98 214.5,-45.27"/>
</g>
<!-- 3&#45;&gt;1 -->
<g id="edge12" class="edge">
<title>3&#45;&gt;1</title>
<path fill="none" stroke="grey" stroke-width="2" d="M140.51,-431.7C129.04,-422.88 114.94,-412.03 102.52,-402.47"/>
<polygon fill="grey" stroke="grey" stroke-width="2" points="104.3,-399.43 94.24,-396.1 100.03,-404.98 104.3,-399.43"/>
</g>
<!-- 4 -->
<g id="node5" class="node">
<title>4</title>
<path fill="none" stroke="#56b1d8" stroke-width="2" d="M303,-396C303,-396 247,-396 247,-396 241,-396 235,-390 235,-384 235,-384 235,-372 235,-372 235,-366 241,-360 247,-360 247,-360 303,-360 303,-360 309,-360 315,-366 315,-372 315,-372 315,-384 315,-384 315,-390 309,-396 303,-396"/>
<text text-anchor="middle" x="275" y="-375.5" font-family="sans" font-size="10.00">create_betas</text>
</g>
<!-- 3&#45;&gt;4 -->
<g id="edge14" class="edge">
<title>3&#45;&gt;4</title>
<path fill="none" stroke="grey" stroke-width="2" d="M190.4,-431.88C204.91,-422.81 222.92,-411.55 238.59,-401.76"/>
<polygon fill="grey" stroke="grey" stroke-width="2" points="240.87,-404.46 247.5,-396.19 237.16,-398.52 240.87,-404.46"/>
</g>
<!-- 3&#45;&gt;6 -->
<g id="edge18" class="edge">
<title>3&#45;&gt;6</title>
<path fill="none" stroke="grey" stroke-width="2" d="M204.07,-441.88C238.33,-434.5 287.3,-420.52 324,-396 359.11,-372.54 365.09,-360.69 386,-324 397.12,-304.49 404.96,-280.21 409.83,-261.94"/>
<polygon fill="grey" stroke="grey" stroke-width="2" points="413.23,-262.77 412.29,-252.22 406.44,-261.05 413.23,-262.77"/>
</g>
<!-- 8 -->
<g id="node9" class="node">
<title>8</title>
<path fill="none" stroke="#56d8c9" stroke-width="2" d="M328,-180C328,-180 260,-180 260,-180 254,-180 248,-174 248,-168 248,-168 248,-156 248,-156 248,-150 254,-144 260,-144 260,-144 328,-144 328,-144 334,-144 340,-150 340,-156 340,-156 340,-168 340,-168 340,-174 334,-180 328,-180"/>
<text text-anchor="middle" x="294" y="-159.5" font-family="sans" font-size="10.00">create_CNVplot</text>
</g>
<!-- 3&#45;&gt;8 -->
<g id="edge21" class="edge">
<title>3&#45;&gt;8</title>
<path fill="none" stroke="grey" stroke-width="2" d="M170.8,-431.97C192.78,-383.99 255.3,-247.5 281.84,-189.54"/>
<polygon fill="grey" stroke="grey" stroke-width="2" points="285.09,-190.86 286.07,-180.31 278.73,-187.94 285.09,-190.86"/>
</g>
<!-- 4&#45;&gt;0 -->
<g id="edge9" class="edge">
<title>4&#45;&gt;0</title>
<path fill="none" stroke="grey" stroke-width="2" d="M259.72,-359.67C252.05,-349.89 243.46,-337.05 239,-324 207.9,-233.07 229.67,-204.1 229,-108 228.89,-92 227.08,-87.88 229,-72 230.02,-63.53 231.93,-54.47 233.98,-46.28"/>
<polygon fill="grey" stroke="grey" stroke-width="2" points="237.4,-47.03 236.59,-36.47 230.64,-45.23 237.4,-47.03"/>
</g>
<!-- 5 -->
<g id="node6" class="node">
<title>5</title>
<path fill="none" stroke="#d88556" stroke-width="2" d="M337.5,-324C337.5,-324 260.5,-324 260.5,-324 254.5,-324 248.5,-318 248.5,-312 248.5,-312 248.5,-300 248.5,-300 248.5,-294 254.5,-288 260.5,-288 260.5,-288 337.5,-288 337.5,-288 343.5,-288 349.5,-294 349.5,-300 349.5,-300 349.5,-312 349.5,-312 349.5,-318 343.5,-324 337.5,-324"/>
<text text-anchor="middle" x="299" y="-303.5" font-family="sans" font-size="10.00">create_clinicalDF</text>
</g>
<!-- 4&#45;&gt;5 -->
<g id="edge15" class="edge">
<title>4&#45;&gt;5</title>
<path fill="none" stroke="grey" stroke-width="2" d="M280.93,-359.7C283.61,-351.9 286.83,-342.51 289.8,-333.83"/>
<polygon fill="grey" stroke="grey" stroke-width="2" points="293.2,-334.7 293.14,-324.1 286.58,-332.43 293.2,-334.7"/>
</g>
<!-- 4&#45;&gt;6 -->
<g id="edge17" class="edge">
<title>4&#45;&gt;6</title>
<path fill="none" stroke="grey" stroke-width="2" d="M308.86,-359.78C324.91,-350.57 343.67,-338.2 358,-324 376.61,-305.57 392.42,-280.2 402.81,-261.26"/>
<polygon fill="grey" stroke="grey" stroke-width="2" points="405.98,-262.75 407.6,-252.28 399.8,-259.45 405.98,-262.75"/>
</g>
<!-- 5&#45;&gt;0 -->
<g id="edge2" class="edge">
<title>5&#45;&gt;0</title>
<path fill="none" stroke="grey" stroke-width="2" d="M287.59,-287.71C272.95,-264.41 248.35,-221.08 239,-180 228.52,-133.96 233.18,-78.58 237.56,-46.24"/>
<polygon fill="grey" stroke="grey" stroke-width="2" points="241.04,-46.59 239.01,-36.2 234.11,-45.59 241.04,-46.59"/>
</g>
<!-- 5&#45;&gt;6 -->
<g id="edge19" class="edge">
<title>5&#45;&gt;6</title>
<path fill="none" stroke="grey" stroke-width="2" d="M327.62,-287.88C342.92,-278.72 361.94,-267.34 378.42,-257.48"/>
<polygon fill="grey" stroke="grey" stroke-width="2" points="380.48,-260.33 387.27,-252.19 376.89,-254.32 380.48,-260.33"/>
</g>
<!-- 5&#45;&gt;8 -->
<g id="edge22" class="edge">
<title>5&#45;&gt;8</title>
<path fill="none" stroke="grey" stroke-width="2" d="M298.4,-287.87C297.54,-263.67 295.98,-219.21 294.96,-190.39"/>
<polygon fill="grey" stroke="grey" stroke-width="2" points="298.46,-190.06 294.61,-180.19 291.46,-190.31 298.46,-190.06"/>
</g>
<!-- 6&#45;&gt;0 -->
<g id="edge7" class="edge">
<title>6&#45;&gt;0</title>
<path fill="none" stroke="grey" stroke-width="2" d="M446.3,-215.8C458.88,-206.9 472.12,-194.77 479,-180 489.6,-157.23 472.36,-76.72 468,-72 442.76,-44.69 336.5,-29.22 279.12,-22.7"/>
<polygon fill="grey" stroke="grey" stroke-width="2" points="279.33,-19.2 269.01,-21.59 278.56,-26.16 279.33,-19.2"/>
</g>
<!-- 7 -->
<g id="node8" class="node">
<title>7</title>
<path fill="none" stroke="#5682d8" stroke-width="2" d="M612,-108C612,-108 560,-108 560,-108 554,-108 548,-102 548,-96 548,-96 548,-84 548,-84 548,-78 554,-72 560,-72 560,-72 612,-72 612,-72 618,-72 624,-78 624,-84 624,-84 624,-96 624,-96 624,-102 618,-108 612,-108"/>
<text text-anchor="middle" x="586" y="-87.5" font-family="sans" font-size="10.00">create_tSNE</text>
</g>
<!-- 6&#45;&gt;7 -->
<g id="edge20" class="edge">
<title>6&#45;&gt;7</title>
<path fill="none" stroke="grey" stroke-width="2" d="M448.61,-224.36C474.18,-216.27 509.45,-202.07 534,-180 553.13,-162.81 567.17,-136.87 575.8,-117.42"/>
<polygon fill="grey" stroke="grey" stroke-width="2" points="579.04,-118.77 579.72,-108.2 572.59,-116.04 579.04,-118.77"/>
</g>
<!-- 6&#45;&gt;8 -->
<g id="edge23" class="edge">
<title>6&#45;&gt;8</title>
<path fill="none" stroke="grey" stroke-width="2" d="M386.16,-215.88C370.06,-206.64 350,-195.13 332.71,-185.21"/>
<polygon fill="grey" stroke="grey" stroke-width="2" points="334.37,-182.13 323.96,-180.19 330.89,-188.2 334.37,-182.13"/>
</g>
<!-- 9 -->
<g id="node10" class="node">
<title>9</title>
<path fill="none" stroke="#56d86b" stroke-width="2" d="M441.5,-180C441.5,-180 370.5,-180 370.5,-180 364.5,-180 358.5,-174 358.5,-168 358.5,-168 358.5,-156 358.5,-156 358.5,-150 364.5,-144 370.5,-144 370.5,-144 441.5,-144 441.5,-144 447.5,-144 453.5,-150 453.5,-156 453.5,-156 453.5,-168 453.5,-168 453.5,-174 447.5,-180 441.5,-180"/>
<text text-anchor="middle" x="406" y="-159.5" font-family="sans" font-size="10.00">analysis_probes</text>
</g>
<!-- 6&#45;&gt;9 -->
<g id="edge24" class="edge">
<title>6&#45;&gt;9</title>
<path fill="none" stroke="grey" stroke-width="2" d="M413.53,-215.7C412.43,-207.98 411.1,-198.71 409.87,-190.11"/>
<polygon fill="grey" stroke="grey" stroke-width="2" points="413.32,-189.51 408.44,-180.1 406.39,-190.5 413.32,-189.51"/>
</g>
<!-- 10 -->
<g id="node11" class="node">
<title>10</title>
<path fill="none" stroke="#d85656" stroke-width="2" d="M447.5,-108C447.5,-108 364.5,-108 364.5,-108 358.5,-108 352.5,-102 352.5,-96 352.5,-96 352.5,-84 352.5,-84 352.5,-78 358.5,-72 364.5,-72 364.5,-72 447.5,-72 447.5,-72 453.5,-72 459.5,-78 459.5,-84 459.5,-84 459.5,-96 459.5,-96 459.5,-102 453.5,-108 447.5,-108"/>
<text text-anchor="middle" x="406" y="-87.5" font-family="sans" font-size="10.00">analysis_probes_lr</text>
</g>
<!-- 6&#45;&gt;10 -->
<g id="edge26" class="edge">
<title>6&#45;&gt;10</title>
<path fill="none" stroke="grey" stroke-width="2" d="M437.27,-215.7C447.11,-206.31 457.76,-193.8 463,-180 468.68,-165.04 469.39,-158.67 463,-144 458.07,-132.68 449.39,-122.68 440.27,-114.51"/>
<polygon fill="grey" stroke="grey" stroke-width="2" points="442.5,-111.81 432.58,-108.09 438.01,-117.19 442.5,-111.81"/>
</g>
<!-- 7&#45;&gt;0 -->
<g id="edge10" class="edge">
<title>7&#45;&gt;0</title>
<path fill="none" stroke="grey" stroke-width="2" d="M547.84,-75.87C543.2,-74.47 538.51,-73.14 534,-72 443.67,-49.15 335.24,-32.13 279.37,-24.11"/>
<polygon fill="grey" stroke="grey" stroke-width="2" points="279.63,-20.62 269.24,-22.68 278.65,-27.55 279.63,-20.62"/>
</g>
<!-- 8&#45;&gt;0 -->
<g id="edge8" class="edge">
<title>8&#45;&gt;0</title>
<path fill="none" stroke="grey" stroke-width="2" d="M287.73,-143.87C278.79,-119.46 262.3,-74.43 251.75,-45.64"/>
<polygon fill="grey" stroke="grey" stroke-width="2" points="255.02,-44.38 248.29,-36.19 248.45,-46.78 255.02,-44.38"/>
</g>
<!-- 9&#45;&gt;0 -->
<g id="edge6" class="edge">
<title>9&#45;&gt;0</title>
<path fill="none" stroke="grey" stroke-width="2" d="M385.85,-143.87C373.7,-133.51 357.93,-120.03 344,-108 318.56,-86.03 289.71,-60.83 269.2,-42.87"/>
<polygon fill="grey" stroke="grey" stroke-width="2" points="271.33,-40.08 261.5,-36.12 266.72,-45.34 271.33,-40.08"/>
</g>
<!-- 9&#45;&gt;10 -->
<g id="edge25" class="edge">
<title>9&#45;&gt;10</title>
<path fill="none" stroke="grey" stroke-width="2" d="M406,-143.7C406,-135.98 406,-126.71 406,-118.11"/>
<polygon fill="grey" stroke="grey" stroke-width="2" points="409.5,-118.1 406,-108.1 402.5,-118.1 409.5,-118.1"/>
</g>
<!-- 10&#45;&gt;0 -->
<g id="edge1" class="edge">
<title>10&#45;&gt;0</title>
<path fill="none" stroke="grey" stroke-width="2" d="M365.88,-71.88C339.31,-60.53 304.72,-45.77 278.84,-34.73"/>
<polygon fill="grey" stroke="grey" stroke-width="2" points="279.96,-31.4 269.39,-30.69 277.21,-37.84 279.96,-31.4"/>
</g>
</g>
</svg>
